<?xml version="1.0" standalone="no"?>
<!DOCTYPE svg PUBLIC "-//W3C//DTD SVG 1.0//EN" "http://www.w3.org/TR/2001/REC-SVG-20010904/DTD/svg10.dtd">
<svg xmlns="http://www.w3.org/2000/svg" xmlns:xlink="http://www.w3.org/1999/xlink" id="body_1" width="80" height="80">

<g transform="matrix(0.5333334 0 0 0.5333334 0 0)">
	<g transform="matrix(0.2929682 0 0 0.2929682 0.0001162289 0)">
	</g>
    <path transform="matrix(0.2929682 0 0 0.2929682 0.0001162289 0)"  d="M503.7656 276.2852L468.1836 312.8711L480.7148 362.3047C 484.5898 377.5938 475.5781 393.1875 460.3984 397.4609L460.3984 397.4609L411.2891 411.2891L397.4609 460.3984C 393.1875 475.5781 377.5938 484.5898 362.3047 480.7148L362.3047 480.7148L312.8711 468.1836L276.2852 503.7656C 264.9922 514.7461 247.0078 514.7461 235.7148 503.7656L235.7148 503.7656L199.1289 468.1836L149.6953 480.7148C 134.4063 484.5898 118.8125 475.5781 114.5391 460.3984L114.5391 460.3984L100.7109 411.2891L51.60156 397.4609C 36.42188 393.1875 27.41016 377.5938 31.28516 362.3047L31.28516 362.3047L43.81641 312.8711L8.238281 276.2852C -2.746094 264.9922 -2.746094 247.0078 8.238281 235.7148L8.238281 235.7148L43.81641 199.1289L31.28516 149.6953C 27.41016 134.4063 36.42188 118.8125 51.60156 114.5391L51.60156 114.5391L100.7109 100.7109L114.5391 51.60156C 118.8125 36.42188 134.4063 27.41016 149.6953 31.28516L149.6953 31.28516L199.1289 43.81641L235.7148 8.234375C 247.0078 -2.746094 264.9922 -2.746094 276.2852 8.234375L276.2852 8.234375L312.8711 43.81641L362.3086 31.28516C 377.5938 27.41016 393.1875 36.42188 397.4609 51.60156L397.4609 51.60156L411.2891 100.7109L460.3984 114.5391C 475.5781 118.8125 484.5898 134.4063 480.7148 149.6953L480.7148 149.6953L468.1836 199.1289L503.7656 235.7148C 514.7461 247.0078 514.7461 264.9922 503.7656 276.2852z" stroke="none" fill="#FFDE55" fill-rule="nonzero" />
	<g transform="matrix(0.2929682 0 0 0.2929682 0.0001162289 0)">
	</g>
    <path transform="matrix(0.2929682 0 0 0.2929682 0.0001162289 0)"  d="M227.0508 357.875C 136.0469 247.1172 158.6484 91.04297 173.3477 37.28125L173.3477 37.28125L149.6953 31.28516C 134.4063 27.41016 118.8164 36.42188 114.5391 51.60156L114.5391 51.60156L100.7109 100.7109L51.60156 114.5391C 36.42188 118.8125 27.41016 134.4063 31.28516 149.6953L31.28516 149.6953L43.81641 199.1289L8.238281 235.7148C -2.746094 247.0078 -2.746094 264.9922 8.238281 276.2852L8.238281 276.2852L43.81641 312.8711L31.28516 362.3047C 27.41016 377.5938 36.42188 393.1875 51.60156 397.4609L51.60156 397.4609L100.7109 411.2891L114.5391 460.3984C 118.8125 475.5781 134.4063 484.5898 149.6953 480.7148L149.6953 480.7148L199.1289 468.1836L235.7188 503.7656C 247.0117 514.7461 264.9922 514.7461 276.2852 503.7656L276.2852 503.7656L298.4688 482.1914C 284.2344 443.2344 261.9102 400.3008 227.0508 357.875z" stroke="none" fill="#FFC757" fill-rule="nonzero" />
	<g transform="matrix(0.2929682 0 0 0.2929682 0.0001162289 0)">
	</g>
    <path transform="matrix(0.2929682 0 0 0.2929682 0.0001162289 0)"  d="M431.793 256C 431.793 353.0898 353.0898 431.793 256 431.793C 158.9141 431.793 80.20703 353.0898 80.20703 256C 80.20703 158.9102 158.9141 80.20703 256 80.20703C 353.0898 80.20703 431.793 158.9102 431.793 256z" stroke="none" fill="#FFEB99" fill-rule="nonzero" />
	<g transform="matrix(0.2929682 0 0 0.2929682 0.0001162289 0)">
	</g>
    <path transform="matrix(0.2929682 0 0 0.2929682 0.0001162289 0)"  d="M227.0508 357.875C 162.9023 279.8047 155.2031 179.2109 161.3945 107.8086C 112.5703 139.043 80.20703 193.7422 80.20703 256C 80.20703 353.0898 158.9141 431.793 256 431.793C 262.6172 431.793 269.168 431.4258 275.5938 430.7148C 262.9922 406.8359 247.0938 382.2695 227.0508 357.875z" stroke="none" fill="#FFE36C" fill-rule="nonzero" />
	<g transform="matrix(0.2929682 0 0 0.2929682 0.0001162289 0)">
	</g>
    <path transform="matrix(0.2929682 0 0 0.2929682 0.0001162289 0)"  d="M256 297.7773C 240.0117 297.7773 227.0508 284.8164 227.0508 268.8281L227.0508 268.8281L227.0508 247.7813C 227.0508 243.418 230.5898 239.8789 234.9531 239.8789L234.9531 239.8789L277.0469 239.8789C 281.4102 239.8789 284.9492 243.418 284.9492 247.7813L284.9492 247.7813L284.9492 268.8281C 284.9492 284.8164 271.9883 297.7773 256 297.7773z" stroke="none" fill="#57565C" fill-rule="nonzero" />
	<g transform="matrix(0.2929682 0 0 0.2929682 0.0001162289 0)">
	</g>
    <path transform="matrix(0.2929682 0 0 0.2929682 0.0001162289 0)"  d="M190.0469 268.8281C 190.0469 255.25 176.2227 244.2383 159.168 244.2383C 142.1133 244.2383 128.2891 255.25 128.2891 268.8281C 128.2891 282.4102 142.1133 293.418 159.168 293.418C 176.2227 293.418 190.0469 282.4102 190.0469 268.8281z" stroke="none" fill="#FFA6BB" fill-rule="nonzero" />
	<g transform="matrix(0.2929682 0 0 0.2929682 0.0001162289 0)">
	</g>
    <path transform="matrix(0.2929682 0 0 0.2929682 0.0001162289 0)"  d="M383.7109 268.8281C 383.7109 255.25 369.8867 244.2383 352.832 244.2383C 335.7813 244.2383 321.957 255.25 321.957 268.8281C 321.957 282.4102 335.7813 293.418 352.832 293.418C 369.8867 293.418 383.7109 282.4102 383.7109 268.8281z" stroke="none" fill="#FFA6BB" fill-rule="nonzero" />
	<g transform="matrix(0.2929682 0 0 0.2929682 0.0001162289 0)">
	</g>
    <path transform="matrix(0.2929682 0 0 0.2929682 0.0001162289 0)"  d="M339.0898 255.332C 334.8242 255.332 331.3672 251.8711 331.3672 247.6055L331.3672 247.6055L331.3672 234.7773C 331.3672 230.5117 334.8242 227.0508 339.0898 227.0508C 343.3594 227.0508 346.8164 230.5117 346.8164 234.7773L346.8164 234.7773L346.8164 247.6055C 346.8164 251.8711 343.3594 255.332 339.0898 255.332z" stroke="none" fill="#57565C" fill-rule="nonzero" />
	<g transform="matrix(0.2929682 0 0 0.2929682 0.0001162289 0)">
	</g>
    <path transform="matrix(0.2929682 0 0 0.2929682 0.0001162289 0)"  d="M172.9102 255.332C 168.6406 255.332 165.1836 251.8711 165.1836 247.6055L165.1836 247.6055L165.1836 234.7773C 165.1836 230.5117 168.6406 227.0508 172.9102 227.0508C 177.1758 227.0508 180.6367 230.5117 180.6367 234.7773L180.6367 234.7773L180.6367 247.6055C 180.6367 251.8711 177.1758 255.332 172.9102 255.332z" stroke="none" fill="#57565C" fill-rule="nonzero" />
</g>
</svg>