<?xml version="1.0" encoding="UTF-8"?>
<svg xmlns="http://www.w3.org/2000/svg" xmlns:xlink="http://www.w3.org/1999/xlink" width="35pt" height="35pt" viewBox="0 0 35 35" version="1.1">
<g id="surface1">
<path style=" stroke:none;fill-rule:nonzero;fill:rgb(100%,88.627451%,40%);fill-opacity:1;" d="M 33.492188 19.273438 C 33.492188 20.863281 29.796875 21.847656 29.328125 23.277344 C 28.847656 24.761719 31.242188 27.726562 30.34375 28.964844 C 29.4375 30.210938 25.871094 28.84375 24.621094 29.753906 C 23.386719 30.652344 23.589844 34.472656 22.105469 34.953125 C 20.671875 35.417969 18.597656 32.226562 17.011719 32.226562 C 15.421875 32.226562 13.347656 35.417969 11.917969 34.953125 C 10.433594 34.472656 10.636719 30.652344 9.398438 29.753906 C 8.152344 28.84375 4.585938 30.210938 3.675781 28.964844 C 2.777344 27.726562 5.171875 24.761719 4.691406 23.277344 C 4.226562 21.847656 0.527344 20.863281 0.527344 19.273438 C 0.527344 17.6875 4.226562 16.703125 4.691406 15.273438 C 5.171875 13.785156 2.777344 10.820312 3.675781 9.585938 C 4.585938 8.335938 8.152344 9.703125 9.398438 8.796875 C 10.636719 7.898438 10.433594 4.078125 11.917969 3.597656 C 13.347656 3.132812 15.421875 6.324219 17.011719 6.324219 C 18.597656 6.324219 20.671875 3.132812 22.105469 3.597656 C 23.589844 4.078125 23.386719 7.898438 24.621094 8.796875 C 25.871094 9.703125 29.4375 8.335938 30.34375 9.585938 C 31.242188 10.820312 28.847656 13.785156 29.328125 15.273438 C 29.796875 16.703125 33.492188 17.6875 33.492188 19.273438 Z M 33.492188 19.273438 "/>
<path style=" stroke:none;fill-rule:nonzero;fill:rgb(93.72549%,66.666667%,40%);fill-opacity:1;" d="M 33.492188 19.273438 C 33.492188 17.6875 29.796875 16.703125 29.328125 15.273438 C 28.847656 13.785156 31.242188 10.820312 30.34375 9.585938 C 29.910156 8.988281 28.859375 8.992188 27.75 9.054688 C 27.960938 9.132812 28.132812 9.242188 28.253906 9.410156 C 29.050781 10.5 26.929688 13.125 27.355469 14.4375 C 27.769531 15.703125 31.039062 16.574219 31.039062 17.976562 C 31.039062 19.378906 27.769531 20.25 27.355469 21.515625 C 26.929688 22.828125 29.050781 25.453125 28.253906 26.542969 C 27.449219 27.648438 24.296875 26.4375 23.195312 27.242188 C 22.101562 28.039062 22.28125 31.414062 20.96875 31.839844 C 19.703125 32.253906 17.867188 29.429688 16.464844 29.429688 C 15.058594 29.429688 13.226562 32.253906 11.960938 31.839844 C 10.644531 31.414062 10.824219 28.039062 9.734375 27.242188 C 8.628906 26.4375 5.476562 27.648438 4.671875 26.542969 C 3.878906 25.453125 5.996094 22.828125 5.570312 21.515625 C 5.160156 20.25 1.890625 19.378906 1.890625 17.976562 C 1.890625 17.804688 1.9375 17.636719 2.027344 17.480469 C 1.210938 18.023438 0.527344 18.59375 0.527344 19.273438 C 0.527344 20.863281 4.226562 21.847656 4.691406 23.277344 C 5.171875 24.761719 2.777344 27.726562 3.675781 28.964844 C 4.585938 30.210938 8.152344 28.84375 9.398438 29.753906 C 10.636719 30.652344 10.433594 34.472656 11.917969 34.953125 C 13.347656 35.417969 15.421875 32.226562 17.011719 32.226562 C 18.597656 32.226562 20.671875 35.417969 22.105469 34.953125 C 23.589844 34.472656 23.386719 30.652344 24.621094 29.753906 C 25.871094 28.84375 29.4375 30.210938 30.34375 28.964844 C 31.242188 27.726562 28.847656 24.761719 29.328125 23.277344 C 29.796875 21.847656 33.492188 20.863281 33.492188 19.273438 Z M 33.492188 19.273438 "/>
<path style=" stroke:none;fill-rule:nonzero;fill:rgb(99.607843%,94.901961%,65.882353%);fill-opacity:1;" d="M 26.644531 19.273438 C 26.644531 24.597656 22.332031 28.910156 17.011719 28.910156 C 11.6875 28.910156 7.375 24.597656 7.375 19.273438 C 7.375 13.953125 11.6875 9.640625 17.011719 9.640625 C 22.332031 9.640625 26.644531 13.953125 26.644531 19.273438 Z M 26.644531 19.273438 "/>
<path style=" stroke:none;fill-rule:nonzero;fill:rgb(93.333333%,71.372549%,65.882353%);fill-opacity:1;" d="M 17.011719 9.640625 C 16.710938 9.640625 16.410156 9.652344 16.117188 9.679688 C 20.113281 10.089844 23.230469 13.464844 23.230469 17.566406 C 23.230469 21.945312 19.679688 25.492188 15.300781 25.492188 C 11.199219 25.492188 7.824219 22.378906 7.417969 18.382812 C 7.390625 18.675781 7.375 18.972656 7.375 19.273438 C 7.375 24.597656 11.6875 28.910156 17.011719 28.910156 C 22.332031 28.910156 26.644531 24.597656 26.644531 19.273438 C 26.644531 13.953125 22.332031 9.640625 17.011719 9.640625 Z M 17.011719 9.640625 "/>
<path style=" stroke:none;fill-rule:nonzero;fill:rgb(100%,100%,100%);fill-opacity:1;" d="M 12.765625 14.488281 C 12.558594 14.488281 12.351562 14.394531 12.210938 14.21875 C 11.976562 13.910156 12.03125 13.46875 12.335938 13.234375 C 12.554688 13.066406 12.785156 12.90625 13.015625 12.761719 C 13.347656 12.5625 13.777344 12.664062 13.980469 12.992188 C 14.183594 13.324219 14.082031 13.757812 13.75 13.957031 C 13.5625 14.074219 13.375 14.203125 13.195312 14.34375 C 13.070312 14.441406 12.917969 14.488281 12.765625 14.488281 Z M 12.765625 14.488281 "/>
<path style=" stroke:none;fill-rule:nonzero;fill:rgb(100%,100%,100%);fill-opacity:1;" d="M 10.207031 18.617188 C 10.164062 18.617188 10.117188 18.613281 10.070312 18.605469 C 9.691406 18.527344 9.445312 18.160156 9.519531 17.777344 C 9.726562 16.738281 10.140625 15.765625 10.753906 14.894531 C 10.976562 14.578125 11.414062 14.5 11.730469 14.722656 C 12.046875 14.945312 12.125 15.382812 11.902344 15.699219 C 11.402344 16.414062 11.0625 17.203125 10.894531 18.050781 C 10.828125 18.386719 10.535156 18.617188 10.207031 18.617188 Z M 10.207031 18.617188 "/>
<path style=" stroke:none;fill-rule:nonzero;fill:rgb(81.568627%,51.372549%,44.705882%);fill-opacity:1;" d="M 20.25 20.261719 C 20.015625 20.261719 19.828125 20.074219 19.828125 19.84375 L 19.828125 19.046875 C 19.828125 18.816406 20.015625 18.628906 20.25 18.628906 C 20.480469 18.628906 20.667969 18.816406 20.667969 19.046875 L 20.667969 19.84375 C 20.667969 20.074219 20.480469 20.261719 20.25 20.261719 Z M 20.25 20.261719 "/>
<path style=" stroke:none;fill-rule:nonzero;fill:rgb(81.568627%,51.372549%,44.705882%);fill-opacity:1;" d="M 22.519531 22.082031 C 22.289062 22.082031 22.101562 21.890625 22.101562 21.660156 L 22.101562 20.867188 C 22.101562 20.632812 22.289062 20.445312 22.519531 20.445312 C 22.753906 20.445312 22.941406 20.632812 22.941406 20.867188 L 22.941406 21.660156 C 22.941406 21.890625 22.753906 22.082031 22.519531 22.082031 Z M 22.519531 22.082031 "/>
<path style=" stroke:none;fill-rule:nonzero;fill:rgb(81.568627%,51.372549%,44.705882%);fill-opacity:1;" d="M 19.738281 25.460938 C 19.503906 25.460938 19.316406 25.269531 19.316406 25.039062 L 19.316406 24.242188 C 19.316406 24.011719 19.503906 23.824219 19.738281 23.824219 C 19.96875 23.824219 20.160156 24.011719 20.160156 24.242188 L 20.160156 25.039062 C 20.160156 25.269531 19.96875 25.460938 19.738281 25.460938 Z M 19.738281 25.460938 "/>
<path style=" stroke:none;fill-rule:nonzero;fill:rgb(99.607843%,94.901961%,65.882353%);fill-opacity:1;" d="M 2.871094 1.1875 L 3.449219 2.804688 C 3.472656 2.875 3.523438 2.929688 3.582031 2.957031 L 5.023438 3.605469 C 5.226562 3.699219 5.226562 4.023438 5.023438 4.113281 L 3.582031 4.761719 C 3.523438 4.789062 3.472656 4.84375 3.449219 4.914062 L 2.871094 6.535156 C 2.792969 6.761719 2.503906 6.761719 2.421875 6.535156 L 1.847656 4.914062 C 1.820312 4.84375 1.773438 4.789062 1.710938 4.761719 L 0.269531 4.113281 C 0.0664062 4.023438 0.0664062 3.699219 0.269531 3.605469 L 1.710938 2.957031 C 1.773438 2.929688 1.820312 2.875 1.847656 2.804688 L 2.421875 1.1875 C 2.503906 0.957031 2.792969 0.957031 2.871094 1.1875 Z M 2.871094 1.1875 "/>
<path style=" stroke:none;fill-rule:nonzero;fill:rgb(99.607843%,94.901961%,65.882353%);fill-opacity:1;" d="M 33.171875 3.730469 L 33.601562 4.929688 C 33.617188 4.980469 33.65625 5.023438 33.699219 5.042969 L 34.769531 5.523438 C 34.917969 5.59375 34.917969 5.832031 34.769531 5.902344 L 33.699219 6.382812 C 33.65625 6.402344 33.617188 6.441406 33.601562 6.496094 L 33.171875 7.695312 C 33.113281 7.867188 32.898438 7.867188 32.839844 7.695312 L 32.410156 6.496094 C 32.394531 6.441406 32.355469 6.402344 32.3125 6.382812 L 31.242188 5.902344 C 31.09375 5.832031 31.09375 5.59375 31.242188 5.523438 L 32.3125 5.042969 C 32.355469 5.023438 32.394531 4.980469 32.410156 4.929688 L 32.839844 3.730469 C 32.898438 3.558594 33.113281 3.558594 33.171875 3.730469 Z M 33.171875 3.730469 "/>
<path style=" stroke:none;fill-rule:nonzero;fill:rgb(100%,88.627451%,40%);fill-opacity:1;" d="M 27.886719 0.03125 C 27.210938 -0.132812 26.53125 0.285156 26.371094 0.960938 C 26.210938 1.636719 26.625 2.316406 27.304688 2.476562 C 27.980469 2.640625 28.65625 2.222656 28.820312 1.546875 C 28.980469 0.871094 28.5625 0.191406 27.886719 0.03125 Z M 27.886719 0.03125 "/>
<path style=" stroke:none;fill-rule:nonzero;fill:rgb(100%,88.627451%,40%);fill-opacity:1;" d="M 16.917969 1.816406 C 16.917969 2.117188 16.675781 2.359375 16.375 2.359375 C 16.074219 2.359375 15.832031 2.117188 15.832031 1.816406 C 15.832031 1.519531 16.074219 1.273438 16.375 1.273438 C 16.675781 1.273438 16.917969 1.519531 16.917969 1.816406 Z M 16.917969 1.816406 "/>
</g>
</svg>
