<svg id="Capa_1" enable-background="new 0 0 499.018 499.018" height="512" viewBox="0 0 499.018 499.018" width="512" xmlns="http://www.w3.org/2000/svg"><g><g><path d="m477.516 274.815c0 22.633-52.708 36.655-59.339 57.078-6.873 21.167 27.285 63.449 14.463 81.068-12.95 17.795-63.803-1.697-81.598 11.253-17.619 12.822-14.719 67.272-35.886 74.145-20.423 6.631-49.995-38.909-72.629-38.909-22.633 0-52.205 45.54-72.628 38.909-21.167-6.873-18.268-61.323-35.886-74.145-17.795-12.951-68.647 6.542-81.598-11.253-12.822-17.619 21.335-59.901 14.463-81.067-6.631-20.423-59.339-34.444-59.339-57.078s52.708-36.655 59.339-57.078c6.873-21.167-27.285-63.449-14.463-81.068 12.95-17.795 63.803 1.697 81.598-11.253 17.619-12.822 14.719-67.272 35.886-74.145 20.423-6.631 49.995 38.909 72.629 38.909 22.633 0 52.205-45.54 72.628-38.909 21.167 6.873 18.268 61.323 35.886 74.145 17.795 12.95 68.647-6.542 81.598 11.253 12.822 17.618-21.335 59.9-14.463 81.067 6.631 20.423 59.339 34.444 59.339 57.078z" fill="#ffe266"/><path d="m477.516 274.815c0-22.634-52.708-36.655-59.339-57.078-6.873-21.167 27.285-63.449 14.463-81.067-6.214-8.538-21.157-8.49-36.985-7.562 3.001 1.085 5.474 2.688 7.186 5.04 11.338 15.58-18.866 52.968-12.789 71.685 5.864 18.059 52.472 30.458 52.472 50.472s-46.608 32.413-52.472 50.472c-6.077 18.717 24.127 56.106 12.789 71.685-11.452 15.735-56.419-1.501-72.154 9.951-15.579 11.338-13.016 59.486-31.733 65.564-18.059 5.864-44.209-34.406-64.223-34.406s-46.163 40.27-64.223 34.406c-18.717-6.077-16.154-54.226-31.733-65.564-15.735-11.452-60.702 5.784-72.154-9.951-11.338-15.579 18.866-52.968 12.789-71.685-5.864-18.059-52.472-30.458-52.472-50.472 0-2.473.714-4.83 1.973-7.096-11.632 7.739-21.373 15.876-21.373 25.605 0 22.634 52.708 36.655 59.339 57.078 6.873 21.167-27.285 63.449-14.463 81.067 12.951 17.795 63.803-1.697 81.598 11.253 17.618 12.822 14.719 67.272 35.886 74.145 20.423 6.631 49.995-38.909 72.628-38.909 22.634 0 52.206 45.54 72.629 38.909 21.167-6.873 18.268-61.323 35.886-74.145 17.795-12.95 68.647 6.542 81.598-11.253 12.822-17.619-21.335-59.901-14.463-81.068 6.632-20.421 59.34-34.443 59.34-57.076z" fill="#efaa66"/><circle cx="242.527" cy="274.815" fill="#fef2a8" r="137.38"/><path d="m242.527 137.435c-4.292 0-8.534.207-12.725.592 56.958 5.822 101.395 53.938 101.395 112.433 0 62.422-50.603 113.025-113.025 113.025-58.495 0-106.611-44.437-112.433-101.395-.385 4.191-.592 8.434-.592 12.725 0 75.873 61.507 137.379 137.38 137.379s137.38-61.507 137.38-137.379c-.001-75.873-61.508-137.38-137.38-137.38z" fill="#eeb6a8"/><g><path d="m182.032 206.585c-2.987 0-5.942-1.332-7.913-3.877-3.382-4.366-2.583-10.648 1.783-14.029 3.098-2.399 6.358-4.654 9.69-6.701 4.705-2.893 10.864-1.421 13.755 3.285 2.892 4.705 1.42 10.864-3.285 13.755-2.72 1.671-5.383 3.513-7.914 5.473-1.821 1.411-3.977 2.094-6.116 2.094z" fill="#fff"/></g><g><path d="m145.545 265.438c-.646 0-1.301-.063-1.96-.194-5.417-1.076-8.936-6.34-7.859-11.757 2.949-14.847 8.865-28.681 17.582-41.115 3.17-4.523 9.408-5.619 13.929-2.448 4.522 3.17 5.618 9.407 2.448 13.929-7.112 10.146-11.938 21.427-14.343 33.532-.945 4.758-5.123 8.053-9.797 8.053z" fill="#fff"/></g><g><path d="m288.704 288.912c-3.314 0-6-2.686-6-6v-11.331c0-3.313 2.686-6 6-6 3.313 0 6 2.687 6 6v11.331c0 3.314-2.687 6-6 6z" fill="#d08372"/></g><g><path d="m321.089 314.82c-3.314 0-6-2.686-6-6v-11.33c0-3.313 2.686-6 6-6s6 2.687 6 6v11.331c0 3.313-2.687 5.999-6 5.999z" fill="#d08372"/></g><g><path d="m281.417 362.993c-3.313 0-6-2.687-6-6v-11.331c0-3.313 2.687-6 6-6 3.314 0 6 2.687 6 6v11.331c0 3.314-2.687 6-6 6z" fill="#d08372"/></g></g><path d="m40.955 16.908 8.214 23.098c.352.989 1.048 1.773 1.927 2.168l20.521 9.246c2.899 1.306 2.899 5.925 0 7.232l-20.521 9.246c-.879.396-1.575 1.18-1.927 2.168l-8.214 23.098c-1.16 3.263-5.265 3.263-6.425 0l-8.214-23.098c-.352-.989-1.048-1.773-1.927-2.168l-20.521-9.246c-2.899-1.306-2.899-5.925 0-7.232l20.521-9.246c.879-.396 1.575-1.18 1.927-2.168l8.214-23.098c1.161-3.263 5.265-3.263 6.425 0z" fill="#fef2a8"/><path d="m472.967 53.166 6.093 17.133c.261.734.777 1.315 1.429 1.609l15.222 6.858c2.151.969 2.151 4.395 0 5.364l-15.222 6.858c-.652.294-1.168.875-1.429 1.609l-6.093 17.133c-.861 2.421-3.905 2.421-4.766 0l-6.093-17.133c-.261-.734-.777-1.315-1.429-1.609l-15.222-6.858c-2.151-.969-2.151-4.395 0-5.364l15.222-6.858c.652-.294 1.168-.875 1.429-1.609l6.093-17.133c.861-2.421 3.905-2.421 4.766 0z" fill="#fef2a8"/><g fill="#ffe266"><ellipse cx="393.247" cy="17.937" rx="17.937" ry="17.937" transform="matrix(.232 -.973 .973 .232 284.749 396.345)"/><circle cx="233.473" cy="25.917" r="7.737"/></g></g></svg>